# xmcd
#
# Track frame offsets:
#	150
#	15269
#	31522
#	44653
#	61719
#	75701
#	92194
#	108121
#	123706
#	139421
#	159654
#	169397
#	187541
#	204815
#	217172
#	240155
#	253921
#	268366
#	285386
#	297372
#	313486
#
# Disc length: 4367 seconds
#
# Revision: 2
# Processed by: cddbd v1.5.2PL0 Copyright (c) Steve Scherf et al.
# Submitted via: dBpowerAMP V4.0
#
DISCID=2e110d15
DTITLE=Various Artist - Hott Urban Volume 34 Can
DYEAR=2018
DGENRE=Urban
TTITLE0=Drake - God's Plan
TTITLE1=Quality Control ft. Quavo and Lil Yachty - Ice Tray
TTITLE2=Offset and Metro Boomin - Ric Flair Drip
TTITLE3=Jay Rock ft. Kendrick Lamar, Future and James Blake - King's Dead
TTITLE4=Calvin Harris ft. Partynextdoor - Nuh Ready Nuh Ready
TTITLE5=Chris Brown - Tempo
TTITLE6=Weeknd ft. Kendrick Lamar, The - Pray For Me
TTITLE7=Lil Uzi Vert - Sauce It Up
TTITLE8=Fat Joe and Dre - Pick It Up
TTITLE9=Big Sean and Metro Boomin ft. Kash Doll - So Good
TTITLE10=Saweetie - Icy Grl
TTITLE11=Jhene Aiko ft. Rae Sremmurd - Sativa
TTITLE12=Nav ft. Lil Uzi Vert - Wanted You
TTITLE13=Danileigh ft. Kes - All I Know
TTITLE14=Young Dolph, Gucci Mane, 2 Chainz, TY Dolla $ign - Go Get Sum Mo
TTITLE15=Blocboy JB ft. Drake - Look Alive
TTITLE16=Kent Jones - Merengue
TTITLE17=Nipsey Hussle ft. YG - Last Time That I Checc'd
TTITLE18=Ybn Nahmir - Rubbin' Off The Paint
TTITLE19=DVSN - Mood
TTITLE20=Eric Bellinger ft. Wale - Goat 2.0
EXTD=
EXTT0=
EXTT1=
EXTT2=
EXTT3=
EXTT4=
EXTT5=
EXTT6=
EXTT7=
EXTT8=
EXTT9=
EXTT10=
EXTT11=
EXTT12=
EXTT13=
EXTT14=
EXTT15=
EXTT16=
EXTT17=
EXTT18=
EXTT19=
EXTT20=
PLAYORDER=
